<?xml version="1.0" encoding="UTF-8" standalone="no"?>
<!-- Created with Inkscape (http://www.inkscape.org/) -->

<svg
   xmlns:dc="http://purl.org/dc/elements/1.1/"
   xmlns:cc="http://creativecommons.org/ns#"
   xmlns:rdf="http://www.w3.org/1999/02/22-rdf-syntax-ns#"
   xmlns:svg="http://www.w3.org/2000/svg"
   xmlns="http://www.w3.org/2000/svg"
   xmlns:sodipodi="http://sodipodi.sourceforge.net/DTD/sodipodi-0.dtd"
   xmlns:inkscape="http://www.inkscape.org/namespaces/inkscape"
   width="128"
   height="128"
   viewBox="0 0 33.866666 33.866668"
   version="1.1"
   id="svg8"
   inkscape:version="0.92.3 (2405546, 2018-03-11)"
   sodipodi:docname="qrify.svg"
   inkscape:export-filename="C:\Users\dcoles\Documents\workspace\qrify\chrome-extension\icon16.png"
   inkscape:export-xdpi="12"
   inkscape:export-ydpi="12">
  <defs
     id="defs2">
    <filter
       inkscape:menu-tooltip="In and out glow with a possible offset and colorizable flood"
       inkscape:menu="Shadows and Glows"
       inkscape:label="Cutout Glow"
       style="color-interpolation-filters:sRGB;"
       id="filter3806">
      <feOffset
         dy="3"
         dx="3"
         id="feOffset3796" />
      <feGaussianBlur
         stdDeviation="3"
         result="blur"
         id="feGaussianBlur3798" />
      <feFlood
         flood-color="rgb(0,0,0)"
         flood-opacity="1"
         result="flood"
         id="feFlood3800" />
      <feComposite
         in="flood"
         in2="SourceGraphic"
         operator="in"
         result="composite"
         id="feComposite3802" />
      <feBlend
         in="blur"
         in2="composite"
         mode="normal"
         id="feBlend3804" />
    </filter>
  </defs>
  <sodipodi:namedview
     id="base"
     pagecolor="#ffffff"
     bordercolor="#666666"
     borderopacity="1.0"
     inkscape:pageopacity="0.0"
     inkscape:pageshadow="2"
     inkscape:zoom="4"
     inkscape:cx="140.45439"
     inkscape:cy="20.436908"
     inkscape:document-units="mm"
     inkscape:current-layer="layer1"
     showgrid="false"
     units="px"
     inkscape:window-width="1920"
     inkscape:window-height="1137"
     inkscape:window-x="-8"
     inkscape:window-y="-8"
     inkscape:window-maximized="1" />
  <metadata
     id="metadata5">
    <rdf:RDF>
      <cc:Work
         rdf:about="">
        <dc:format>image/svg+xml</dc:format>
        <dc:type
           rdf:resource="http://purl.org/dc/dcmitype/StillImage" />
        <dc:title></dc:title>
      </cc:Work>
    </rdf:RDF>
  </metadata>
  <g
     inkscape:label="QR"
     inkscape:groupmode="layer"
     id="layer1"
     transform="translate(0,-263.13332)">
    <rect
       style="fill:#ffffff;stroke-width:0.60412115"
       id="rect33951"
       width="26.458334"
       height="26.458334"
       x="3.7041664"
       y="266.83749"
       ry="0" />
    <rect
       style="display:inline;fill:#ffffff;stroke-width:0.29277495"
       id="rect5045"
       width="27.77582"
       height="26.458334"
       x="3.0454235"
       y="266.83749" />
    <g
       transform="matrix(0.26458333,0,0,0.26458333,1.1906252,264.32395)"
       id="g33948">
      <path
         style="fill:#000000;fill-opacity:1"
         d="m 22.125,22.625 q 0.125,-0.375 0.5,-0.5 Q 23,22 23.5,22 q 0.5,0 1,0 0.5,0 1,0 0.5,0 1,0 0.5,0 1,0 0.5,0 1,0 0.5,0 1,0 0.5,0 1,0 0.5,0 1,0 0.5,0 1,0 0.5,0 1,0 0.5,0 1,0 0.5,0 1,0 0.5,0 1,0 0.5,0 1,0 0.5,0 1,0 0.5,0 1,0 0.5,0 1,0 0.5,0 1,0 0.5,0 0.875,0.125 0.375,0.125 0.5,0.5 Q 43,23 43,23.5 q 0,0.5 0,1 0,0.5 0,1 0,0.5 0,1 0,0.5 0,1 0,0.5 0,1 0,0.5 0,1 0,0.5 0,1 0,0.5 0,1 0,0.5 0,1 0,0.5 0,1 0,0.5 0,1 0,0.5 0,1 0,0.5 0,1 0,0.5 0,1 0,0.5 0,1 0,0.5 0,1 0,0.5 0,1 0,0.5 0,1 0,0.5 -0.125,0.875 -0.125,0.375 -0.5,0.5 Q 42,43 41.5,43 q -0.5,0 -1,0 -0.5,0 -1,0 -0.5,0 -1,0 -0.5,0 -1,0 -0.5,0 -1,0 -0.5,0 -1,0 -0.5,0 -1,0 -0.5,0 -1,0 -0.5,0 -1,0 -0.5,0 -1,0 -0.5,0 -1,0 -0.5,0 -1,0 -0.5,0 -1,0 -0.5,0 -1,0 -0.5,0 -1,0 -0.5,0 -1,0 -0.5,0 -1,0 -0.5,0 -1,0 -0.5,0 -0.875,-0.125 -0.375,-0.125 -0.5,-0.5 Q 22,42 22,41.5 q 0,-0.5 0,-1 0,-0.5 0,-1 0,-0.5 0,-1 0,-0.5 0,-1 0,-0.5 0,-1 0,-0.5 0,-1 0,-0.5 0,-1 0,-0.5 0,-1 0,-0.5 0,-1 0,-0.5 0,-1 0,-0.5 0,-1 0,-0.5 0,-1 0,-0.5 0,-1 0,-0.5 0,-1 0,-0.5 0,-1 0,-0.5 0,-1 0,-0.5 0,-1 0,-0.5 0,-1 0,-0.5 0.125,-0.875 M 38.5,40 q 0.5,0 0.875,-0.125 0.375,-0.125 0.5,-0.5 Q 40,39 40,38.5 q 0,-0.5 0,-1 0,-0.5 0,-1 0,-0.5 0,-1 0,-0.5 0,-1 0,-0.5 0,-1 0,-0.5 0,-1 0,-0.5 0,-1 0,-0.5 0,-1 0,-0.5 0,-1 0,-0.5 0,-1 0,-0.5 0,-1 0,-0.5 0,-1 0,-0.5 -0.125,-0.875 -0.125,-0.375 -0.5,-0.5 Q 39,25 38.5,25 q -0.5,0 -1,0 -0.5,0 -1,0 -0.5,0 -1,0 -0.5,0 -1,0 -0.5,0 -1,0 -0.5,0 -1,0 -0.5,0 -1,0 -0.5,0 -1,0 -0.5,0 -1,0 -0.5,0 -1,0 -0.5,0 -1,0 -0.5,0 -1,0 -0.5,0 -0.875,0.125 -0.375,0.125 -0.5,0.5 Q 25,26 25,26.5 q 0,0.5 0,1 0,0.5 0,1 0,0.5 0,1 0,0.5 0,1 0,0.5 0,1 0,0.5 0,1 0,0.5 0,1 0,0.5 0,1 0,0.5 0,1 0,0.5 0,1 0,0.5 0,1 0,0.5 0,1 0,0.5 0.125,0.875 0.125,0.375 0.5,0.5 Q 26,40 26.5,40 q 0.5,0 1,0 0.5,0 1,0 0.5,0 1,0 0.5,0 1,0 0.5,0 1,0 0.5,0 1,0 0.5,0 1,0 0.5,0 1,0 0.5,0 1,0 0.5,0 1,0 0.5,0 1,0 0.5,0 1,0"
         id="path33882"
         inkscape:connector-curvature="0" />
      <path
         style="fill:#000000;fill-opacity:1"
         d="m 52.125,22.625 q 0.125,-0.375 0.5,-0.5 Q 53,22 53.5,22 q 0.5,0 1,0 0.5,0 1,0 0.5,0 1,0 0.5,0 1,0 0.5,0 1,0 0.5,0 1,0 0.5,0 0.875,0.125 0.375,0.125 0.5,0.5 Q 61,23 61,23.5 q 0,0.5 0.125,0.875 0.125,0.375 0.5,0.5 Q 62,25 62.5,25 q 0.5,0 1,0 0.5,0 1,0 0.5,0 1,0 0.5,0 0.875,-0.125 0.375,-0.125 0.5,-0.5 Q 67,24 67,23.5 67,23 67.125,22.625 67.25,22.25 67.625,22.125 68,22 68.5,22 q 0.5,0 1,0 0.5,0 1,0 0.5,0 1,0 0.5,0 0.875,0.125 0.375,0.125 0.5,0.5 Q 73,23 73,23.5 q 0,0.5 0,1 0,0.5 0,1 0,0.5 0,1 0,0.5 -0.125,0.875 -0.125,0.375 -0.5,0.5 Q 72,28 71.5,28 71,28 70.625,28.125 70.25,28.25 70.125,28.625 70,29 70,29.5 q 0,0.5 0,1 0,0.5 0,1 0,0.5 0,1 0,0.5 0.125,0.875 0.125,0.375 0.5,0.5 Q 71,34 71.5,34 q 0.5,0 0.875,0.125 0.375,0.125 0.5,0.5 Q 73,35 73,35.5 q 0,0.5 -0.125,0.875 -0.125,0.375 -0.5,0.5 Q 72,37 71.5,37 q -0.5,0 -1,0 -0.5,0 -1,0 -0.5,0 -1,0 -0.5,0 -0.875,-0.125 -0.375,-0.125 -0.5,-0.5 Q 67,36 67,35.5 67,35 66.875,34.625 66.75,34.25 66.375,34.125 66,34 65.5,34 65,34 64.625,33.875 64.25,33.75 64.125,33.375 64,33 64,32.5 64,32 64.125,31.625 64.25,31.25 64.625,31.125 65,31 65.5,31 q 0.5,0 0.875,-0.125 0.375,-0.125 0.5,-0.5 Q 67,30 67,29.5 67,29 66.875,28.625 66.75,28.25 66.375,28.125 66,28 65.5,28 65,28 64.625,28.125 64.25,28.25 64.125,28.625 64,29 64,29.5 q 0,0.5 -0.125,0.875 -0.125,0.375 -0.5,0.5 Q 63,31 62.5,31 62,31 61.625,30.875 61.25,30.75 61.125,30.375 61,30 61,29.5 61,29 60.875,28.625 60.75,28.25 60.375,28.125 60,28 59.5,28 q -0.5,0 -1,0 -0.5,0 -1,0 -0.5,0 -1,0 -0.5,0 -0.875,-0.125 -0.375,-0.125 -0.5,-0.5 Q 55,27 55,26.5 55,26 54.875,25.625 54.75,25.25 54.375,25.125 54,25 53.5,25 53,25 52.625,24.875 52.25,24.75 52.125,24.375 52,24 52,23.5 52,23 52.125,22.625"
         id="path33884"
         inkscape:connector-curvature="0" />
      <path
         style="fill:#000000;fill-opacity:1"
         d="m 76.125,22.625 q 0.125,-0.375 0.5,-0.5 Q 77,22 77.5,22 q 0.5,0 1,0 0.5,0 1,0 0.5,0 1,0 0.5,0 1,0 0.5,0 1,0 0.5,0 1,0 0.5,0 1,0 0.5,0 1,0 0.5,0 1,0 0.5,0 1,0 0.5,0 1,0 0.5,0 1,0 0.5,0 1,0 0.5,0 1,0 0.5,0 1,0 0.5,0 1,0 0.5,0 1,0 0.5,0 1,0 0.5,0 0.875,0.125 0.375,0.125 0.5,0.5 Q 97,23 97,23.5 q 0,0.5 0,1 0,0.5 0,1 0,0.5 0,1 0,0.5 0,1 0,0.5 0,1 0,0.5 0,1 0,0.5 0,1 0,0.5 0,1 0,0.5 0,1 0,0.5 0,1 0,0.5 0,1 0,0.5 0,1 0,0.5 0,1 0,0.5 0,1 0,0.5 0,1 0,0.5 0,1 0,0.5 0,1 0,0.5 0,1 0,0.5 -0.125,0.875 -0.125,0.375 -0.5,0.5 Q 96,43 95.5,43 q -0.5,0 -1,0 -0.5,0 -1,0 -0.5,0 -1,0 -0.5,0 -1,0 -0.5,0 -1,0 -0.5,0 -1,0 -0.5,0 -1,0 -0.5,0 -1,0 -0.5,0 -1,0 -0.5,0 -1,0 -0.5,0 -1,0 -0.5,0 -1,0 -0.5,0 -1,0 -0.5,0 -1,0 -0.5,0 -1,0 -0.5,0 -1,0 -0.5,0 -1,0 -0.5,0 -1,0 -0.5,0 -0.875,-0.125 -0.375,-0.125 -0.5,-0.5 Q 76,42 76,41.5 q 0,-0.5 0,-1 0,-0.5 0,-1 0,-0.5 0,-1 0,-0.5 0,-1 0,-0.5 0,-1 0,-0.5 0,-1 0,-0.5 0,-1 0,-0.5 0,-1 0,-0.5 0,-1 0,-0.5 0,-1 0,-0.5 0,-1 0,-0.5 0,-1 0,-0.5 0,-1 0,-0.5 0,-1 0,-0.5 0,-1 0,-0.5 0,-1 0,-0.5 0,-1 0,-0.5 0,-1 0,-0.5 0.125,-0.875 M 92.5,40 q 0.5,0 0.875,-0.125 0.375,-0.125 0.5,-0.5 Q 94,39 94,38.5 q 0,-0.5 0,-1 0,-0.5 0,-1 0,-0.5 0,-1 0,-0.5 0,-1 0,-0.5 0,-1 0,-0.5 0,-1 0,-0.5 0,-1 0,-0.5 0,-1 0,-0.5 0,-1 0,-0.5 0,-1 0,-0.5 0,-1 0,-0.5 0,-1 0,-0.5 -0.125,-0.875 -0.125,-0.375 -0.5,-0.5 Q 93,25 92.5,25 q -0.5,0 -1,0 -0.5,0 -1,0 -0.5,0 -1,0 -0.5,0 -1,0 -0.5,0 -1,0 -0.5,0 -1,0 -0.5,0 -1,0 -0.5,0 -1,0 -0.5,0 -1,0 -0.5,0 -1,0 -0.5,0 -1,0 -0.5,0 -1,0 -0.5,0 -0.875,0.125 -0.375,0.125 -0.5,0.5 Q 79,26 79,26.5 q 0,0.5 0,1 0,0.5 0,1 0,0.5 0,1 0,0.5 0,1 0,0.5 0,1 0,0.5 0,1 0,0.5 0,1 0,0.5 0,1 0,0.5 0,1 0,0.5 0,1 0,0.5 0,1 0,0.5 0,1 0,0.5 0.125,0.875 0.125,0.375 0.5,0.5 Q 80,40 80.5,40 q 0.5,0 1,0 0.5,0 1,0 0.5,0 1,0 0.5,0 1,0 0.5,0 1,0 0.5,0 1,0 0.5,0 1,0 0.5,0 1,0 0.5,0 1,0 0.5,0 1,0 0.5,0 1,0 0.5,0 1,0"
         id="path33886"
         inkscape:connector-curvature="0" />
      <path
         style="fill:#ffffff;fill-opacity:1"
         d="m 25.125,25.625 q 0.125,-0.375 0.5,-0.5 Q 26,25 26.5,25 q 0.5,0 1,0 0.5,0 1,0 0.5,0 1,0 0.5,0 1,0 0.5,0 1,0 0.5,0 1,0 0.5,0 1,0 0.5,0 1,0 0.5,0 1,0 0.5,0 1,0 0.5,0 1,0 0.5,0 1,0 0.5,0 0.875,0.125 0.375,0.125 0.5,0.5 Q 40,26 40,26.5 q 0,0.5 0,1 0,0.5 0,1 0,0.5 0,1 0,0.5 0,1 0,0.5 0,1 0,0.5 0,1 0,0.5 0,1 0,0.5 0,1 0,0.5 0,1 0,0.5 0,1 0,0.5 0,1 0,0.5 0,1 0,0.5 -0.125,0.875 -0.125,0.375 -0.5,0.5 Q 39,40 38.5,40 q -0.5,0 -1,0 -0.5,0 -1,0 -0.5,0 -1,0 -0.5,0 -1,0 -0.5,0 -1,0 -0.5,0 -1,0 -0.5,0 -1,0 -0.5,0 -1,0 -0.5,0 -1,0 -0.5,0 -1,0 -0.5,0 -1,0 -0.5,0 -1,0 -0.5,0 -0.875,-0.125 -0.375,-0.125 -0.5,-0.5 Q 25,39 25,38.5 q 0,-0.5 0,-1 0,-0.5 0,-1 0,-0.5 0,-1 0,-0.5 0,-1 0,-0.5 0,-1 0,-0.5 0,-1 0,-0.5 0,-1 0,-0.5 0,-1 0,-0.5 0,-1 0,-0.5 0,-1 0,-0.5 0,-1 0,-0.5 0,-1 0,-0.5 0.125,-0.875 M 35.5,37 q 0.5,0 0.875,-0.125 0.375,-0.125 0.5,-0.5 Q 37,36 37,35.5 q 0,-0.5 0,-1 0,-0.5 0,-1 0,-0.5 0,-1 0,-0.5 0,-1 0,-0.5 0,-1 0,-0.5 0,-1 0,-0.5 -0.125,-0.875 -0.125,-0.375 -0.5,-0.5 Q 36,28 35.5,28 q -0.5,0 -1,0 -0.5,0 -1,0 -0.5,0 -1,0 -0.5,0 -1,0 -0.5,0 -1,0 -0.5,0 -1,0 -0.5,0 -0.875,0.125 -0.375,0.125 -0.5,0.5 Q 28,29 28,29.5 q 0,0.5 0,1 0,0.5 0,1 0,0.5 0,1 0,0.5 0,1 0,0.5 0,1 0,0.5 0,1 0,0.5 0.125,0.875 0.125,0.375 0.5,0.5 Q 29,37 29.5,37 q 0.5,0 1,0 0.5,0 1,0 0.5,0 1,0 0.5,0 1,0 0.5,0 1,0 0.5,0 1,0"
         id="path33888"
         inkscape:connector-curvature="0" />
      <path
         style="fill:#000000;fill-opacity:1"
         d="m 46.125,25.625 q 0.125,-0.375 0.5,-0.5 Q 47,25 47.5,25 q 0.5,0 0.875,0.125 0.375,0.125 0.5,0.5 Q 49,26 49,26.5 q 0,0.5 0.125,0.875 0.125,0.375 0.5,0.5 Q 50,28 50.5,28 q 0.5,0 1,0 0.5,0 1,0 0.5,0 1,0 0.5,0 0.875,0.125 0.375,0.125 0.5,0.5 Q 55,29 55,29.5 q 0,0.5 -0.125,0.875 -0.125,0.375 -0.5,0.5 Q 54,31 53.5,31 53,31 52.625,31.125 52.25,31.25 52.125,31.625 52,32 52,32.5 q 0,0.5 -0.125,0.875 -0.125,0.375 -0.5,0.5 Q 51,34 50.5,34 50,34 49.5,34 H 49 v -0.5 q 0,-0.5 0,-1 0,-0.5 -0.125,-0.875 -0.125,-0.375 -0.5,-0.5 Q 48,31 47.5,31 47,31 46.625,30.875 46.25,30.75 46.125,30.375 46,30 46,29.5 q 0,-0.5 0,-1 0,-0.5 0,-1 0,-0.5 0,-1 0,-0.5 0.125,-0.875"
         id="path33890"
         inkscape:connector-curvature="0" />
      <path
         style="fill:#ffffff;fill-opacity:1"
         d="m 79.125,25.625 q 0.125,-0.375 0.5,-0.5 Q 80,25 80.5,25 q 0.5,0 1,0 0.5,0 1,0 0.5,0 1,0 0.5,0 1,0 0.5,0 1,0 0.5,0 1,0 0.5,0 1,0 0.5,0 1,0 0.5,0 1,0 0.5,0 1,0 0.5,0 1,0 0.5,0 1,0 0.5,0 0.875,0.125 0.375,0.125 0.5,0.5 Q 94,26 94,26.5 q 0,0.5 0,1 0,0.5 0,1 0,0.5 0,1 0,0.5 0,1 0,0.5 0,1 0,0.5 0,1 0,0.5 0,1 0,0.5 0,1 0,0.5 0,1 0,0.5 0,1 0,0.5 0,1 0,0.5 0,1 0,0.5 -0.125,0.875 -0.125,0.375 -0.5,0.5 Q 93,40 92.5,40 q -0.5,0 -1,0 -0.5,0 -1,0 -0.5,0 -1,0 -0.5,0 -1,0 -0.5,0 -1,0 -0.5,0 -1,0 -0.5,0 -1,0 -0.5,0 -1,0 -0.5,0 -1,0 -0.5,0 -1,0 -0.5,0 -1,0 -0.5,0 -1,0 -0.5,0 -0.875,-0.125 -0.375,-0.125 -0.5,-0.5 Q 79,39 79,38.5 q 0,-0.5 0,-1 0,-0.5 0,-1 0,-0.5 0,-1 0,-0.5 0,-1 0,-0.5 0,-1 0,-0.5 0,-1 0,-0.5 0,-1 0,-0.5 0,-1 0,-0.5 0,-1 0,-0.5 0,-1 0,-0.5 0,-1 0,-0.5 0,-1 0,-0.5 0.125,-0.875 M 89.5,37 q 0.5,0 0.875,-0.125 0.375,-0.125 0.5,-0.5 Q 91,36 91,35.5 q 0,-0.5 0,-1 0,-0.5 0,-1 0,-0.5 0,-1 0,-0.5 0,-1 0,-0.5 0,-1 0,-0.5 0,-1 0,-0.5 -0.125,-0.875 -0.125,-0.375 -0.5,-0.5 Q 90,28 89.5,28 q -0.5,0 -1,0 -0.5,0 -1,0 -0.5,0 -1,0 -0.5,0 -1,0 -0.5,0 -1,0 -0.5,0 -1,0 -0.5,0 -0.875,0.125 -0.375,0.125 -0.5,0.5 Q 82,29 82,29.5 q 0,0.5 0,1 0,0.5 0,1 0,0.5 0,1 0,0.5 0,1 0,0.5 0,1 0,0.5 0,1 0,0.5 0.125,0.875 0.125,0.375 0.5,0.5 Q 83,37 83.5,37 q 0.5,0 1,0 0.5,0 1,0 0.5,0 1,0 0.5,0 1,0 0.5,0 1,0 0.5,0 1,0"
         id="path33892"
         inkscape:connector-curvature="0" />
      <path
         style="fill:#000000;fill-opacity:1"
         d="m 28.125,28.625 q 0.125,-0.375 0.5,-0.5 Q 29,28 29.5,28 q 0.5,0 1,0 0.5,0 1,0 0.5,0 1,0 0.5,0 1,0 0.5,0 1,0 0.5,0 1,0 0.5,0 0.875,0.125 0.375,0.125 0.5,0.5 Q 37,29 37,29.5 q 0,0.5 0,1 0,0.5 0,1 0,0.5 0,1 0,0.5 0,1 0,0.5 0,1 0,0.5 0,1 0,0.5 -0.125,0.875 -0.125,0.375 -0.5,0.5 Q 36,37 35.5,37 q -0.5,0 -1,0 -0.5,0 -1,0 -0.5,0 -1,0 -0.5,0 -1,0 -0.5,0 -1,0 -0.5,0 -1,0 -0.5,0 -0.875,-0.125 -0.375,-0.125 -0.5,-0.5 Q 28,36 28,35.5 q 0,-0.5 0,-1 0,-0.5 0,-1 0,-0.5 0,-1 0,-0.5 0,-1 0,-0.5 0,-1 0,-0.5 0,-1 0,-0.5 0.125,-0.875"
         id="path33894"
         inkscape:connector-curvature="0" />
      <path
         style="fill:#000000;fill-opacity:1"
         d="m 82.125,28.625 q 0.125,-0.375 0.5,-0.5 Q 83,28 83.5,28 q 0.5,0 1,0 0.5,0 1,0 0.5,0 1,0 0.5,0 1,0 0.5,0 1,0 0.5,0 1,0 0.5,0 0.875,0.125 0.375,0.125 0.5,0.5 Q 91,29 91,29.5 q 0,0.5 0,1 0,0.5 0,1 0,0.5 0,1 0,0.5 0,1 0,0.5 0,1 0,0.5 0,1 0,0.5 -0.125,0.875 -0.125,0.375 -0.5,0.5 Q 90,37 89.5,37 q -0.5,0 -1,0 -0.5,0 -1,0 -0.5,0 -1,0 -0.5,0 -1,0 -0.5,0 -1,0 -0.5,0 -1,0 -0.5,0 -0.875,-0.125 -0.375,-0.125 -0.5,-0.5 Q 82,36 82,35.5 q 0,-0.5 0,-1 0,-0.5 0,-1 0,-0.5 0,-1 0,-0.5 0,-1 0,-0.5 0,-1 0,-0.5 0,-1 0,-0.5 0.125,-0.875"
         id="path33896"
         inkscape:connector-curvature="0" />
      <path
         style="fill:#000000;fill-opacity:1"
         d="m 55.125,31.625 q 0.125,-0.375 0.5,-0.5 Q 56,31 56.5,31 q 0.5,0 1,0 0.5,0 1,0 0.5,0 1,0 0.5,0 0.875,0.125 0.375,0.125 0.5,0.5 Q 61,32 61,32.5 q 0,0.5 0.125,0.875 0.125,0.375 0.5,0.5 Q 62,34 62.5,34 q 0.5,0 0.875,0.125 0.375,0.125 0.5,0.5 Q 64,35 64,35.5 q 0,0.5 -0.125,0.875 -0.125,0.375 -0.5,0.5 Q 63,37 62.5,37 62,37 61.625,37.125 61.25,37.25 61.125,37.625 61,38 61,38.5 q 0,0.5 0,1 0,0.5 0,1 0,0.5 0,1 0,0.5 0.125,0.875 0.125,0.375 0.5,0.5 Q 62,43 62.5,43 q 0.5,0 0.875,-0.125 0.375,-0.125 0.5,-0.5 Q 64,42 64,41.5 64,41 64.125,40.625 64.25,40.25 64.625,40.125 65,40 65.5,40 q 0.5,0 0.875,0.125 0.375,0.125 0.5,0.5 Q 67,41 67,41.5 q 0,0.5 -0.125,0.875 -0.125,0.375 -0.5,0.5 Q 66,43 65.5,43 65,43 64.625,43.125 64.25,43.25 64.125,43.625 64,44 64,44.5 q 0,0.5 0,1 V 46 h -0.5 q -0.5,0 -1,0 -0.5,0 -1,0 -0.5,0 -1,0 -0.5,0 -1,0 -0.5,0 -1,0 H 58 v -0.5 q 0,-0.5 0,-1 0,-0.5 0,-1 0,-0.5 0,-1 0,-0.5 0,-1 0,-0.5 0,-1 0,-0.5 0,-1 0,-0.5 0,-1 0,-0.5 0,-1 0,-0.5 0,-1 0,-0.5 0,-1 0,-0.5 -0.125,-0.875 -0.125,-0.375 -0.5,-0.5 Q 57,34 56.5,34 56,34 55.625,33.875 55.25,33.75 55.125,33.375 55,33 55,32.5 55,32 55.125,31.625"
         id="path33898"
         inkscape:connector-curvature="0" />
      <path
         style="fill:#000000;fill-opacity:1"
         d="m 46.125,34.625 q 0.125,-0.375 0.5,-0.5 Q 47,34 47.5,34 q 0.5,0 1,0 H 49 v 0.5 q 0,0.5 0,1 0,0.5 0,1 0,0.5 0,1 0,0.5 0,1 0,0.5 0,1 0,0.5 0,1 0,0.5 0,1 0,0.5 0.125,0.875 0.125,0.375 0.5,0.5 Q 50,43 50.5,43 q 0.5,0 0.875,-0.125 0.375,-0.125 0.5,-0.5 Q 52,42 52,41.5 q 0,-0.5 0,-1 0,-0.5 0,-1 0,-0.5 0,-1 0,-0.5 0,-1 0,-0.5 0,-1 0,-0.5 0,-1 0,-0.5 0.125,-0.875 0.125,-0.375 0.5,-0.5 Q 53,34 53.5,34 q 0.5,0 0.875,0.125 0.375,0.125 0.5,0.5 Q 55,35 55,35.5 q 0,0.5 0,1 0,0.5 0,1 0,0.5 0,1 0,0.5 0,1 0,0.5 0,1 0,0.5 0,1 0,0.5 0,1 0,0.5 0,1 0,0.5 0,1 0,0.5 -0.125,0.875 -0.125,0.375 -0.5,0.5 Q 54,46 53.5,46 53,46 52.625,46.125 52.25,46.25 52.125,46.625 52,47 52,47.5 q 0,0.5 0,1 0,0.5 0,1 0,0.5 0,1 0,0.5 0.125,0.875 0.125,0.375 0.5,0.5 Q 53,52 53.5,52 q 0.5,0 1,0 0.5,0 1,0 0.5,0 1,0 0.5,0 0.875,-0.125 0.375,-0.125 0.5,-0.5 Q 58,51 58,50.5 58,50 58.125,49.625 58.25,49.25 58.625,49.125 59,49 59.5,49 q 0.5,0 1,0 0.5,0 1,0 0.5,0 1,0 0.5,0 0.875,-0.125 0.375,-0.125 0.5,-0.5 Q 64,48 64,47.5 64,47 64,46.5 V 46 h 0.5 q 0.5,0 1,0 0.5,0 0.875,0.125 0.375,0.125 0.5,0.5 Q 67,47 67,47.5 q 0,0.5 0,1 0,0.5 0,1 0,0.5 0,1 0,0.5 0,1 0,0.5 0,1 0,0.5 0,1 0,0.5 0,1 0,0.5 0,1 0,0.5 0,1 0,0.5 -0.125,0.875 -0.125,0.375 -0.5,0.5 Q 66,58 65.5,58 65,58 64.625,58.125 64.25,58.25 64.125,58.625 64,59 64,59.5 q 0,0.5 0.125,0.875 0.125,0.375 0.5,0.5 Q 65,61 65.5,61 q 0.5,0 1,0 0.5,0 1,0 0.5,0 1,0 0.5,0 0.875,0.125 0.375,0.125 0.5,0.5 Q 70,62 70,62.5 q 0,0.5 -0.125,0.875 -0.125,0.375 -0.5,0.5 Q 69,64 68.5,64 68,64 67.625,64.125 67.25,64.25 67.125,64.625 67,65 67,65.5 q 0,0.5 -0.125,0.875 -0.125,0.375 -0.5,0.5 Q 66,67 65.5,67 65,67 64.625,67.125 64.25,67.25 64.125,67.625 64,68 64,68.5 q 0,0.5 0,1 0,0.5 0,1 0,0.5 0,1 0,0.5 0.125,0.875 0.125,0.375 0.5,0.5 Q 65,73 65.5,73 q 0.5,0 1,0 0.5,0 1,0 0.5,0 1,0 0.5,0 0.875,-0.125 0.375,-0.125 0.5,-0.5 Q 70,72 70,71.5 q 0,-0.5 0,-1 0,-0.5 0,-1 0,-0.5 0,-1 0,-0.5 0.125,-0.875 0.125,-0.375 0.5,-0.5 Q 71,67 71.5,67 q 0.5,0 1,0 0.5,0 1,0 0.5,0 1,0 0.5,0 0.875,-0.125 0.375,-0.125 0.5,-0.5 Q 76,66 76,65.5 q 0,-0.5 0,-1 0,-0.5 0,-1 0,-0.5 0,-1 0,-0.5 -0.125,-0.875 -0.125,-0.375 -0.5,-0.5 Q 75,61 74.5,61 74,61 73.625,60.875 73.25,60.75 73.125,60.375 73,60 73,59.5 73,59 72.875,58.625 72.75,58.25 72.375,58.125 72,58 71.5,58 71,58 70.625,57.875 70.25,57.75 70.125,57.375 70,57 70,56.5 70,56 70.125,55.625 70.25,55.25 70.625,55.125 71,55 71.5,55 q 0.5,0 0.875,-0.125 0.375,-0.125 0.5,-0.5 Q 73,54 73,53.5 73,53 73.125,52.625 73.25,52.25 73.625,52.125 74,52 74.5,52 q 0.5,0 0.875,-0.125 0.375,-0.125 0.5,-0.5 Q 76,51 76,50.5 q 0,-0.5 0,-1 0,-0.5 0,-1 0,-0.5 0,-1 0,-0.5 0.125,-0.875 0.125,-0.375 0.5,-0.5 Q 77,46 77.5,46 q 0.5,0 1,0 0.5,0 1,0 0.5,0 1,0 0.5,0 1,0 0.5,0 1,0 0.5,0 1,0 0.5,0 0.875,0.125 0.375,0.125 0.5,0.5 Q 85,47 85,47.5 q 0,0.5 0,1 0,0.5 0,1 0,0.5 0,1 0,0.5 -0.125,0.875 -0.125,0.375 -0.5,0.5 Q 84,52 83.5,52 83,52 82.625,51.875 82.25,51.75 82.125,51.375 82,51 82,50.5 82,50 81.875,49.625 81.75,49.25 81.375,49.125 81,49 80.5,49 80,49 79.625,49.125 79.25,49.25 79.125,49.625 79,50 79,50.5 q 0,0.5 0.125,0.875 0.125,0.375 0.5,0.5 Q 80,52 80.5,52 q 0.5,0 0.875,0.125 0.375,0.125 0.5,0.5 Q 82,53 82,53.5 q 0,0.5 0.125,0.875 0.125,0.375 0.5,0.5 Q 83,55 83.5,55 q 0.5,0 1,0 H 85 v 0.5 q 0,0.5 0,1 0,0.5 -0.125,0.875 -0.125,0.375 -0.5,0.5 Q 84,58 83.5,58 83,58 82.625,58.125 82.25,58.25 82.125,58.625 82,59 82,59.5 q 0,0.5 0.125,0.875 0.125,0.375 0.5,0.5 Q 83,61 83.5,61 q 0.5,0 0.875,0.125 0.375,0.125 0.5,0.5 Q 85,62 85,62.5 q 0,0.5 0.125,0.875 0.125,0.375 0.5,0.5 Q 86,64 86.5,64 q 0.5,0 0.875,-0.125 0.375,-0.125 0.5,-0.5 Q 88,63 88,62.5 q 0,-0.5 0,-1 0,-0.5 0,-1 0,-0.5 0,-1 0,-0.5 0.125,-0.875 0.125,-0.375 0.5,-0.5 Q 89,58 89.5,58 q 0.5,0 1,0 0.5,0 1,0 0.5,0 1,0 0.5,0 0.875,-0.125 0.375,-0.125 0.5,-0.5 Q 94,57 94,56.5 94,56 94.125,55.625 94.25,55.25 94.625,55.125 95,55 95.5,55 q 0.5,0 0.875,0.125 0.375,0.125 0.5,0.5 Q 97,56 97,56.5 q 0,0.5 0,1 0,0.5 0,1 0,0.5 0,1 0,0.5 0,1 0,0.5 0,1 0,0.5 0,1 0,0.5 -0.125,0.875 -0.125,0.375 -0.5,0.5 Q 96,64 95.5,64 95,64 94.625,63.875 94.25,63.75 94.125,63.375 94,63 94,62.5 94,62 93.875,61.625 93.75,61.25 93.375,61.125 93,61 92.5,61 92,61 91.625,61.125 91.25,61.25 91.125,61.625 91,62 91,62.5 q 0,0.5 -0.125,0.875 -0.125,0.375 -0.5,0.5 Q 90,64 89.5,64 89,64 88.625,64.125 88.25,64.25 88.125,64.625 88,65 88,65.5 q 0,0.5 -0.125,0.875 -0.125,0.375 -0.5,0.5 Q 87,67 86.5,67 q -0.5,0 -1,0 -0.5,0 -1,0 -0.5,0 -1,0 -0.5,0 -0.875,-0.125 -0.375,-0.125 -0.5,-0.5 Q 82,66 82,65.5 82,65 81.875,64.625 81.75,64.25 81.375,64.125 81,64 80.5,64 80,64 79.625,64.125 79.25,64.25 79.125,64.625 79,65 79,65.5 q 0,0.5 0.125,0.875 0.125,0.375 0.5,0.5 Q 80,67 80.5,67 q 0.5,0 0.875,0.125 0.375,0.125 0.5,0.5 Q 82,68 82,68.5 q 0,0.5 0.125,0.875 0.125,0.375 0.5,0.5 Q 83,70 83.5,70 q 0.5,0 0.875,0.125 0.375,0.125 0.5,0.5 Q 85,71 85,71.5 q 0,0.5 0,1 0,0.5 0,1 0,0.5 0,1 0,0.5 0.125,0.875 0.125,0.375 0.5,0.5 Q 86,76 86.5,76 q 0.5,0 0.875,0.125 0.375,0.125 0.5,0.5 Q 88,77 88,77.5 q 0,0.5 0.125,0.875 0.125,0.375 0.5,0.5 Q 89,79 89.5,79 q 0.5,0 0.875,-0.125 0.375,-0.125 0.5,-0.5 Q 91,78 91,77.5 91,77 91.125,76.625 91.25,76.25 91.625,76.125 92,76 92.5,76 q 0.5,0 1,0 0.5,0 1,0 0.5,0 1,0 0.5,0 0.875,0.125 0.375,0.125 0.5,0.5 Q 97,77 97,77.5 q 0,0.5 0,1 0,0.5 0,1 0,0.5 0,1 0,0.5 -0.125,0.875 -0.125,0.375 -0.5,0.5 Q 96,82 95.5,82 95,82 94.625,82.125 94.25,82.25 94.125,82.625 94,83 94,83.5 q 0,0.5 -0.125,0.875 -0.125,0.375 -0.5,0.5 Q 93,85 92.5,85 q -0.5,0 -1,0 -0.5,0 -1,0 -0.5,0 -1,0 -0.5,0 -0.875,-0.125 -0.375,-0.125 -0.5,-0.5 Q 88,84 88,83.5 88,83 87.875,82.625 87.75,82.25 87.375,82.125 87,82 86.5,82 86,82 85.625,82.125 85.25,82.25 85.125,82.625 85,83 85,83.5 q 0,0.5 0,1 0,0.5 0,1 0,0.5 0,1 0,0.5 -0.125,0.875 -0.125,0.375 -0.5,0.5 Q 84,88 83.5,88 83,88 82.625,88.125 82.25,88.25 82.125,88.625 82,89 82,89.5 q 0,0.5 -0.125,0.875 -0.125,0.375 -0.5,0.5 Q 81,91 80.5,91 q -0.5,0 -1,0 -0.5,0 -1,0 -0.5,0 -1,0 -0.5,0 -0.875,0.125 -0.375,0.125 -0.5,0.5 Q 76,92 76,92.5 q 0,0.5 0,1 0,0.5 0,1 0,0.5 0,1 0,0.5 -0.125,0.875 -0.125,0.375 -0.5,0.5 Q 75,97 74.5,97 q -0.5,0 -1,0 -0.5,0 -1,0 -0.5,0 -1,0 -0.5,0 -1,0 -0.5,0 -1,0 -0.5,0 -1,0 -0.5,0 -0.875,-0.125 -0.375,-0.125 -0.5,-0.5 Q 67,96 67,95.5 67,95 66.875,94.625 66.75,94.25 66.375,94.125 66,94 65.5,94 65,94 64.625,94.125 64.25,94.25 64.125,94.625 64,95 64,95.5 q 0,0.5 -0.125,0.875 -0.125,0.375 -0.5,0.5 Q 63,97 62.5,97 62,97 61.625,96.875 61.25,96.75 61.125,96.375 61,96 61,95.5 61,95 60.875,94.625 60.75,94.25 60.375,94.125 60,94 59.5,94 q -0.5,0 -1,0 -0.5,0 -1,0 -0.5,0 -1,0 -0.5,0 -0.875,0.125 -0.375,0.125 -0.5,0.5 Q 55,95 55,95.5 q 0,0.5 -0.125,0.875 -0.125,0.375 -0.5,0.5 Q 54,97 53.5,97 q -0.5,0 -1,0 -0.5,0 -1,0 -0.5,0 -1,0 -0.5,0 -1,0 -0.5,0 -1,0 -0.5,0 -1,0 -0.5,0 -0.875,-0.125 -0.375,-0.125 -0.5,-0.5 Q 46,96 46,95.5 q 0,-0.5 0,-1 0,-0.5 0,-1 0,-0.5 0,-1 0,-0.5 0.125,-0.875 0.125,-0.375 0.5,-0.5 Q 47,91 47.5,91 q 0.5,0 0.875,0.125 0.375,0.125 0.5,0.5 Q 49,92 49,92.5 q 0,0.5 0.125,0.875 0.125,0.375 0.5,0.5 Q 50,94 50.5,94 q 0.5,0 0.875,-0.125 0.375,-0.125 0.5,-0.5 Q 52,93 52,92.5 q 0,-0.5 0,-1 0,-0.5 0,-1 0,-0.5 0,-1 0,-0.5 -0.125,-0.875 -0.125,-0.375 -0.5,-0.5 Q 51,88 50.5,88 q -0.5,0 -1,0 -0.5,0 -1,0 -0.5,0 -1,0 -0.5,0 -0.875,-0.125 -0.375,-0.125 -0.5,-0.5 Q 46,87 46,86.5 46,86 46.125,85.625 46.25,85.25 46.625,85.125 47,85 47.5,85 q 0.5,0 0.875,-0.125 0.375,-0.125 0.5,-0.5 Q 49,84 49,83.5 q 0,-0.5 0,-1 0,-0.5 0,-1 0,-0.5 0,-1 0,-0.5 -0.125,-0.875 -0.125,-0.375 -0.5,-0.5 Q 48,79 47.5,79 47,79 46.625,78.875 46.25,78.75 46.125,78.375 46,78 46,77.5 q 0,-0.5 0,-1 0,-0.5 0,-1 0,-0.5 0,-1 0,-0.5 0,-1 0,-0.5 0,-1 0,-0.5 0,-1 0,-0.5 -0.125,-0.875 -0.125,-0.375 -0.5,-0.5 Q 45,70 44.5,70 44,70 43.625,69.875 43.25,69.75 43.125,69.375 43,69 43,68.5 43,68 43.125,67.625 43.25,67.25 43.625,67.125 44,67 44.5,67 q 0.5,0 0.875,-0.125 0.375,-0.125 0.5,-0.5 Q 46,66 46,65.5 46,65 46.125,64.625 46.25,64.25 46.625,64.125 47,64 47.5,64 q 0.5,0 0.875,-0.125 0.375,-0.125 0.5,-0.5 Q 49,63 49,62.5 49,62 48.875,61.625 48.75,61.25 48.375,61.125 48,61 47.5,61 q -0.5,0 -1,0 -0.5,0 -1,0 -0.5,0 -1,0 -0.5,0 -1,0 -0.5,0 -1,0 -0.5,0 -1,0 -0.5,0 -0.875,0.125 -0.375,0.125 -0.5,0.5 Q 40,62 40,62.5 q 0,0.5 0.125,0.875 0.125,0.375 0.5,0.5 Q 41,64 41.5,64 q 0.5,0 0.875,0.125 0.375,0.125 0.5,0.5 Q 43,65 43,65.5 q 0,0.5 -0.125,0.875 -0.125,0.375 -0.5,0.5 Q 42,67 41.5,67 q -0.5,0 -1,0 -0.5,0 -1,0 -0.5,0 -1,0 -0.5,0 -0.875,-0.125 -0.375,-0.125 -0.5,-0.5 Q 37,66 37,65.5 q 0,-0.5 0,-1 0,-0.5 0,-1 0,-0.5 0,-1 0,-0.5 0.125,-0.875 0.125,-0.375 0.5,-0.5 Q 38,61 38.5,61 q 0.5,0 0.875,-0.125 0.375,-0.125 0.5,-0.5 Q 40,60 40,59.5 40,59 40.125,58.625 40.25,58.25 40.625,58.125 41,58 41.5,58 q 0.5,0 1,0 0.5,0 1,0 0.5,0 1,0 0.5,0 0.875,-0.125 0.375,-0.125 0.5,-0.5 Q 46,57 46,56.5 46,56 46,55.5 V 55 h 0.5 q 0.5,0 1,0 0.5,0 0.875,0.125 0.375,0.125 0.5,0.5 Q 49,56 49,56.5 q 0,0.5 0,1 0,0.5 0,1 0,0.5 0,1 0,0.5 0.125,0.875 0.125,0.375 0.5,0.5 Q 50,61 50.5,61 q 0.5,0 0.875,-0.125 0.375,-0.125 0.5,-0.5 Q 52,60 52,59.5 q 0,-0.5 0,-1 0,-0.5 0,-1 0,-0.5 0,-1 0,-0.5 -0.125,-0.875 -0.125,-0.375 -0.5,-0.5 Q 51,55 50.5,55 50,55 49.625,54.875 49.25,54.75 49.125,54.375 49,54 49,53.5 q 0,-0.5 0,-1 0,-0.5 0,-1 0,-0.5 0,-1 0,-0.5 0,-1 0,-0.5 0,-1 0,-0.5 0,-1 0,-0.5 -0.125,-0.875 -0.125,-0.375 -0.5,-0.5 Q 48,46 47.5,46 47,46 46.5,46 H 46 v -0.5 q 0,-0.5 0,-1 0,-0.5 0,-1 0,-0.5 0,-1 0,-0.5 0,-1 0,-0.5 0,-1 0,-0.5 0,-1 0,-0.5 0,-1 0,-0.5 0,-1 0,-0.5 0,-1 0,-0.5 0,-1 0,-0.5 0.125,-0.875 M 53.5,85 q 0.5,0 0.875,-0.125 0.375,-0.125 0.5,-0.5 Q 55,84 55,83.5 55,83 55.125,82.625 55.25,82.25 55.625,82.125 56,82 56.5,82 q 0.5,0 0.875,-0.125 0.375,-0.125 0.5,-0.5 Q 58,81 58,80.5 q 0,-0.5 0,-1 0,-0.5 0,-1 0,-0.5 0,-1 0,-0.5 0,-1 0,-0.5 0,-1 0,-0.5 0,-1 0,-0.5 0.125,-0.875 0.125,-0.375 0.5,-0.5 Q 59,73 59.5,73 q 0.5,0 0.875,-0.125 0.375,-0.125 0.5,-0.5 Q 61,72 61,71.5 61,71 60.875,70.625 60.75,70.25 60.375,70.125 60,70 59.5,70 59,70 58.625,69.875 58.25,69.75 58.125,69.375 58,69 58,68.5 58,68 57.875,67.625 57.75,67.25 57.375,67.125 57,67 56.5,67 56,67 55.625,66.875 55.25,66.75 55.125,66.375 55,66 55,65.5 55,65 55.125,64.625 55.25,64.25 55.625,64.125 56,64 56.5,64 q 0.5,0 0.875,0.125 0.375,0.125 0.5,0.5 Q 58,65 58,65.5 q 0,0.5 0.125,0.875 0.125,0.375 0.5,0.5 Q 59,67 59.5,67 q 0.5,0 0.875,-0.125 0.375,-0.125 0.5,-0.5 Q 61,66 61,65.5 61,65 61.125,64.625 61.25,64.25 61.625,64.125 62,64 62.5,64 q 0.5,0 0.875,-0.125 0.375,-0.125 0.5,-0.5 Q 64,63 64,62.5 64,62 63.875,61.625 63.75,61.25 63.375,61.125 63,61 62.5,61 62,61 61.625,60.875 61.25,60.75 61.125,60.375 61,60 61,59.5 61,59 61.125,58.625 61.25,58.25 61.625,58.125 62,58 62.5,58 q 0.5,0 0.875,-0.125 0.375,-0.125 0.5,-0.5 Q 64,57 64,56.5 q 0,-0.5 0,-1 0,-0.5 0,-1 0,-0.5 0,-1 0,-0.5 -0.125,-0.875 -0.125,-0.375 -0.5,-0.5 Q 63,52 62.5,52 62,52 61.625,52.125 61.25,52.25 61.125,52.625 61,53 61,53.5 q 0,0.5 -0.125,0.875 -0.125,0.375 -0.5,0.5 Q 60,55 59.5,55 59,55 58.625,55.125 58.25,55.25 58.125,55.625 58,56 58,56.5 q 0,0.5 -0.125,0.875 -0.125,0.375 -0.5,0.5 Q 57,58 56.5,58 56,58 55.625,58.125 55.25,58.25 55.125,58.625 55,59 55,59.5 q 0,0.5 -0.125,0.875 -0.125,0.375 -0.5,0.5 Q 54,61 53.5,61 53,61 52.625,61.125 52.25,61.25 52.125,61.625 52,62 52,62.5 q 0,0.5 -0.125,0.875 -0.125,0.375 -0.5,0.5 Q 51,64 50.5,64 50,64 49.625,64.125 49.25,64.25 49.125,64.625 49,65 49,65.5 q 0,0.5 0.125,0.875 0.125,0.375 0.5,0.5 Q 50,67 50.5,67 q 0.5,0 0.875,0.125 0.375,0.125 0.5,0.5 Q 52,68 52,68.5 q 0,0.5 0,1 0,0.5 0,1 0,0.5 0,1 0,0.5 -0.125,0.875 -0.125,0.375 -0.5,0.5 Q 51,73 50.5,73 50,73 49.625,73.125 49.25,73.25 49.125,73.625 49,74 49,74.5 q 0,0.5 0,1 0,0.5 0,1 0,0.5 0,1 0,0.5 0.125,0.875 0.125,0.375 0.5,0.5 Q 50,79 50.5,79 q 0.5,0 1,0 0.5,0 1,0 0.5,0 1,0 0.5,0 0.875,0.125 0.375,0.125 0.5,0.5 Q 55,80 55,80.5 q 0,0.5 -0.125,0.875 -0.125,0.375 -0.5,0.5 Q 54,82 53.5,82 53,82 52.625,82.125 52.25,82.25 52.125,82.625 52,83 52,83.5 q 0,0.5 0.125,0.875 0.125,0.375 0.5,0.5 Q 53,85 53.5,85 m 9,9 q 0.5,0 0.875,-0.125 0.375,-0.125 0.5,-0.5 Q 64,93 64,92.5 64,92 64.125,91.625 64.25,91.25 64.625,91.125 65,91 65.5,91 q 0.5,0 0.875,-0.125 0.375,-0.125 0.5,-0.5 Q 67,90 67,89.5 67,89 66.875,88.625 66.75,88.25 66.375,88.125 66,88 65.5,88 q -0.5,0 -1,0 -0.5,0 -1,0 -0.5,0 -1,0 -0.5,0 -0.875,0.125 -0.375,0.125 -0.5,0.5 Q 61,89 61,89.5 q 0,0.5 0,1 0,0.5 0,1 0,0.5 0,1 0,0.5 0.125,0.875 0.125,0.375 0.5,0.5 Q 62,94 62.5,94 m 3,-9 q 0.5,0 0.875,-0.125 0.375,-0.125 0.5,-0.5 Q 67,84 67,83.5 q 0,-0.5 0,-1 0,-0.5 0,-1 0,-0.5 0,-1 0,-0.5 0.125,-0.875 0.125,-0.375 0.5,-0.5 Q 68,79 68.5,79 q 0.5,0 0.875,-0.125 0.375,-0.125 0.5,-0.5 Q 70,78 70,77.5 70,77 69.875,76.625 69.75,76.25 69.375,76.125 69,76 68.5,76 q -0.5,0 -1,0 -0.5,0 -1,0 -0.5,0 -1,0 -0.5,0 -0.875,0.125 -0.375,0.125 -0.5,0.5 Q 64,77 64,77.5 q 0,0.5 -0.125,0.875 -0.125,0.375 -0.5,0.5 Q 63,79 62.5,79 62,79 61.625,79.125 61.25,79.25 61.125,79.625 61,80 61,80.5 q 0,0.5 0.125,0.875 0.125,0.375 0.5,0.5 Q 62,82 62.5,82 q 0.5,0 0.875,0.125 0.375,0.125 0.5,0.5 Q 64,83 64,83.5 q 0,0.5 0.125,0.875 0.125,0.375 0.5,0.5 Q 65,85 65.5,85 m 6,9 q 0.5,0 0.875,-0.125 0.375,-0.125 0.5,-0.5 Q 73,93 73,92.5 q 0,-0.5 0,-1 0,-0.5 0,-1 0,-0.5 0,-1 0,-0.5 -0.125,-0.875 -0.125,-0.375 -0.5,-0.5 Q 72,88 71.5,88 71,88 70.625,88.125 70.25,88.25 70.125,88.625 70,89 70,89.5 q 0,0.5 0,1 0,0.5 0,1 0,0.5 0,1 0,0.5 0.125,0.875 0.125,0.375 0.5,0.5 Q 71,94 71.5,94 m 9,-12 q 0.5,0 0.875,-0.125 0.375,-0.125 0.5,-0.5 Q 82,81 82,80.5 q 0,-0.5 0,-1 0,-0.5 0,-1 0,-0.5 0,-1 0,-0.5 0,-1 0,-0.5 0,-1 0,-0.5 0,-1 0,-0.5 -0.125,-0.875 -0.125,-0.375 -0.5,-0.5 Q 81,73 80.5,73 q -0.5,0 -1,0 -0.5,0 -1,0 -0.5,0 -1,0 -0.5,0 -1,0 -0.5,0 -1,0 -0.5,0 -1,0 -0.5,0 -0.875,0.125 -0.375,0.125 -0.5,0.5 Q 73,74 73,74.5 q 0,0.5 0,1 0,0.5 0,1 0,0.5 0,1 0,0.5 0,1 0,0.5 0,1 0,0.5 0,1 0,0.5 0.125,0.875 0.125,0.375 0.5,0.5 Q 74,82 74.5,82 q 0.5,0 1,0 0.5,0 1,0 0.5,0 1,0 0.5,0 1,0 0.5,0 1,0 0.5,0 1,0 m -6,-24 q 0.5,0 0.875,-0.125 0.375,-0.125 0.5,-0.5 Q 76,57 76,56.5 76,56 75.875,55.625 75.75,55.25 75.375,55.125 75,55 74.5,55 74,55 73.625,55.125 73.25,55.25 73.125,55.625 73,56 73,56.5 q 0,0.5 0.125,0.875 0.125,0.375 0.5,0.5 Q 74,58 74.5,58"
         id="path33900"
         inkscape:connector-curvature="0" />
      <path
         style="fill:#000000;fill-opacity:1"
         d="m 70.125,40.625 q 0.125,-0.375 0.5,-0.5 Q 71,40 71.5,40 q 0.5,0 0.875,0.125 0.375,0.125 0.5,0.5 Q 73,41 73,41.5 q 0,0.5 0,1 0,0.5 0,1 0,0.5 0,1 0,0.5 0,1 0,0.5 0,1 0,0.5 0,1 0,0.5 -0.125,0.875 -0.125,0.375 -0.5,0.5 Q 72,49 71.5,49 71,49 70.625,48.875 70.25,48.75 70.125,48.375 70,48 70,47.5 q 0,-0.5 0,-1 0,-0.5 0,-1 0,-0.5 0,-1 0,-0.5 0,-1 0,-0.5 0,-1 0,-0.5 0,-1 0,-0.5 0.125,-0.875"
         id="path33902"
         inkscape:connector-curvature="0" />
      <path
         style="fill:#000000;fill-opacity:1"
         d="m 22.125,46.625 q 0.125,-0.375 0.5,-0.5 Q 23,46 23.5,46 q 0.5,0 1,0 0.5,0 1,0 0.5,0 1,0 0.5,0 0.875,0.125 0.375,0.125 0.5,0.5 Q 28,47 28,47.5 q 0,0.5 0,1 0,0.5 0,1 0,0.5 0,1 0,0.5 -0.125,0.875 -0.125,0.375 -0.5,0.5 Q 27,52 26.5,52 26,52 25.625,51.875 25.25,51.75 25.125,51.375 25,51 25,50.5 25,50 24.875,49.625 24.75,49.25 24.375,49.125 24,49 23.5,49 23,49 22.625,48.875 22.25,48.75 22.125,48.375 22,48 22,47.5 22,47 22.125,46.625"
         id="path33904"
         inkscape:connector-curvature="0" />
      <path
         style="fill:#000000;fill-opacity:1"
         d="m 31.125,46.625 q 0.125,-0.375 0.5,-0.5 Q 32,46 32.5,46 q 0.5,0 0.875,0.125 0.375,0.125 0.5,0.5 Q 34,47 34,47.5 q 0,0.5 -0.125,0.875 -0.125,0.375 -0.5,0.5 Q 33,49 32.5,49 32,49 31.625,48.875 31.25,48.75 31.125,48.375 31,48 31,47.5 31,47 31.125,46.625"
         id="path33906"
         inkscape:connector-curvature="0" />
      <path
         style="fill:#000000;fill-opacity:1"
         d="m 40.125,46.625 q 0.125,-0.375 0.5,-0.5 Q 41,46 41.5,46 q 0.5,0 1,0 0.5,0 1,0 0.5,0 1,0 0.5,0 1,0 H 46 v 0.5 q 0,0.5 0,1 0,0.5 -0.125,0.875 -0.125,0.375 -0.5,0.5 Q 45,49 44.5,49 q -0.5,0 -1,0 -0.5,0 -1,0 -0.5,0 -1,0 -0.5,0 -0.875,0.125 -0.375,0.125 -0.5,0.5 Q 40,50 40,50.5 q 0,0.5 0.125,0.875 0.125,0.375 0.5,0.5 Q 41,52 41.5,52 q 0.5,0 1,0 0.5,0 1,0 0.5,0 1,0 0.5,0 0.875,0.125 0.375,0.125 0.5,0.5 Q 46,53 46,53.5 q 0,0.5 0,1 V 55 h -0.5 q -0.5,0 -1,0 -0.5,0 -1,0 -0.5,0 -1,0 -0.5,0 -1,0 -0.5,0 -1,0 -0.5,0 -1,0 -0.5,0 -1,0 -0.5,0 -0.875,0.125 -0.375,0.125 -0.5,0.5 Q 37,56 37,56.5 q 0,0.5 -0.125,0.875 -0.125,0.375 -0.5,0.5 Q 36,58 35.5,58 35,58 34.625,57.875 34.25,57.75 34.125,57.375 34,57 34,56.5 34,56 34.125,55.625 34.25,55.25 34.625,55.125 35,55 35.5,55 q 0.5,0 0.875,-0.125 0.375,-0.125 0.5,-0.5 Q 37,54 37,53.5 q 0,-0.5 0,-1 0,-0.5 0,-1 0,-0.5 0,-1 0,-0.5 0.125,-0.875 0.125,-0.375 0.5,-0.5 Q 38,49 38.5,49 q 0.5,0 0.875,-0.125 0.375,-0.125 0.5,-0.5 Q 40,48 40,47.5 40,47 40.125,46.625"
         id="path33908"
         inkscape:connector-curvature="0" />
      <path
         style="fill:#ffffff;fill-opacity:1"
         d="M 46,46.5 V 46 h 0.5 q 0.5,0 1,0 0.5,0 0.875,0.125 0.375,0.125 0.5,0.5 Q 49,47 49,47.5 q 0,0.5 0,1 0,0.5 0,1 0,0.5 0,1 0,0.5 0,1 0,0.5 0,1 0,0.5 0,1 0,0.5 0.125,0.875 0.125,0.375 0.5,0.5 Q 50,55 50.5,55 q 0.5,0 0.875,0.125 0.375,0.125 0.5,0.5 Q 52,56 52,56.5 q 0,0.5 0,1 0,0.5 0,1 0,0.5 0,1 0,0.5 -0.125,0.875 -0.125,0.375 -0.5,0.5 Q 51,61 50.5,61 50,61 49.625,60.875 49.25,60.75 49.125,60.375 49,60 49,59.5 q 0,-0.5 0,-1 0,-0.5 0,-1 0,-0.5 0,-1 0,-0.5 -0.125,-0.875 -0.125,-0.375 -0.5,-0.5 Q 48,55 47.5,55 47,55 46.5,55 H 46 v -0.5 q 0,-0.5 0,-1 0,-0.5 -0.125,-0.875 -0.125,-0.375 -0.5,-0.5 Q 45,52 44.5,52 q -0.5,0 -1,0 -0.5,0 -1,0 -0.5,0 -1,0 -0.5,0 -0.875,-0.125 -0.375,-0.125 -0.5,-0.5 Q 40,51 40,50.5 40,50 40.125,49.625 40.25,49.25 40.625,49.125 41,49 41.5,49 q 0.5,0 1,0 0.5,0 1,0 0.5,0 1,0 0.5,0 0.875,-0.125 0.375,-0.125 0.5,-0.5 Q 46,48 46,47.5 q 0,-0.5 0,-1"
         id="path33910"
         inkscape:connector-curvature="0" />
      <path
         style="fill:#000000;fill-opacity:1"
         d="m 55.125,46.625 q 0.125,-0.375 0.5,-0.5 Q 56,46 56.5,46 q 0.5,0 1,0 H 58 v 0.5 q 0,0.5 0,1 0,0.5 -0.125,0.875 -0.125,0.375 -0.5,0.5 Q 57,49 56.5,49 56,49 55.625,48.875 55.25,48.75 55.125,48.375 55,48 55,47.5 55,47 55.125,46.625"
         id="path33912"
         inkscape:connector-curvature="0" />
      <path
         style="fill:#000000;fill-opacity:1"
         d="m 88.125,46.625 q 0.125,-0.375 0.5,-0.5 Q 89,46 89.5,46 q 0.5,0 1,0 0.5,0 1,0 0.5,0 1,0 0.5,0 0.875,0.125 0.375,0.125 0.5,0.5 Q 94,47 94,47.5 q 0,0.5 0,1 0,0.5 0,1 0,0.5 0,1 0,0.5 -0.125,0.875 -0.125,0.375 -0.5,0.5 Q 93,52 92.5,52 92,52 91.625,52.125 91.25,52.25 91.125,52.625 91,53 91,53.5 q 0,0.5 -0.125,0.875 -0.125,0.375 -0.5,0.5 Q 90,55 89.5,55 q -0.5,0 -1,0 -0.5,0 -1,0 -0.5,0 -1,0 -0.5,0 -1,0 H 85 v -0.5 q 0,-0.5 0,-1 0,-0.5 0.125,-0.875 0.125,-0.375 0.5,-0.5 Q 86,52 86.5,52 q 0.5,0 1,0 0.5,0 1,0 0.5,0 1,0 0.5,0 0.875,-0.125 0.375,-0.125 0.5,-0.5 Q 91,51 91,50.5 91,50 90.875,49.625 90.75,49.25 90.375,49.125 90,49 89.5,49 89,49 88.625,48.875 88.25,48.75 88.125,48.375 88,48 88,47.5 88,47 88.125,46.625"
         id="path33914"
         inkscape:connector-curvature="0" />
      <path
         style="fill:#ffffff;fill-opacity:1"
         d="m 61.125,52.625 q 0.125,-0.375 0.5,-0.5 Q 62,52 62.5,52 q 0.5,0 0.875,0.125 0.375,0.125 0.5,0.5 Q 64,53 64,53.5 q 0,0.5 0,1 0,0.5 0,1 0,0.5 0,1 0,0.5 -0.125,0.875 -0.125,0.375 -0.5,0.5 Q 63,58 62.5,58 62,58 61.625,58.125 61.25,58.25 61.125,58.625 61,59 61,59.5 q 0,0.5 0.125,0.875 0.125,0.375 0.5,0.5 Q 62,61 62.5,61 q 0.5,0 0.875,0.125 0.375,0.125 0.5,0.5 Q 64,62 64,62.5 q 0,0.5 -0.125,0.875 -0.125,0.375 -0.5,0.5 Q 63,64 62.5,64 62,64 61.625,64.125 61.25,64.25 61.125,64.625 61,65 61,65.5 q 0,0.5 -0.125,0.875 -0.125,0.375 -0.5,0.5 Q 60,67 59.5,67 59,67 58.625,66.875 58.25,66.75 58.125,66.375 58,66 58,65.5 58,65 57.875,64.625 57.75,64.25 57.375,64.125 57,64 56.5,64 56,64 55.625,64.125 55.25,64.25 55.125,64.625 55,65 55,65.5 q 0,0.5 0.125,0.875 0.125,0.375 0.5,0.5 Q 56,67 56.5,67 q 0.5,0 0.875,0.125 0.375,0.125 0.5,0.5 Q 58,68 58,68.5 q 0,0.5 0.125,0.875 0.125,0.375 0.5,0.5 Q 59,70 59.5,70 q 0.5,0 0.875,0.125 0.375,0.125 0.5,0.5 Q 61,71 61,71.5 q 0,0.5 -0.125,0.875 -0.125,0.375 -0.5,0.5 Q 60,73 59.5,73 59,73 58.625,73.125 58.25,73.25 58.125,73.625 58,74 58,74.5 q 0,0.5 0,1 0,0.5 0,1 0,0.5 0,1 0,0.5 0,1 0,0.5 0,1 0,0.5 0,1 0,0.5 -0.125,0.875 -0.125,0.375 -0.5,0.5 Q 57,82 56.5,82 56,82 55.625,82.125 55.25,82.25 55.125,82.625 55,83 55,83.5 q 0,0.5 -0.125,0.875 -0.125,0.375 -0.5,0.5 Q 54,85 53.5,85 53,85 52.625,84.875 52.25,84.75 52.125,84.375 52,84 52,83.5 52,83 52.125,82.625 52.25,82.25 52.625,82.125 53,82 53.5,82 q 0.5,0 0.875,-0.125 0.375,-0.125 0.5,-0.5 Q 55,81 55,80.5 55,80 54.875,79.625 54.75,79.25 54.375,79.125 54,79 53.5,79 q -0.5,0 -1,0 -0.5,0 -1,0 -0.5,0 -1,0 -0.5,0 -0.875,-0.125 -0.375,-0.125 -0.5,-0.5 Q 49,78 49,77.5 q 0,-0.5 0,-1 0,-0.5 0,-1 0,-0.5 0,-1 0,-0.5 0.125,-0.875 0.125,-0.375 0.5,-0.5 Q 50,73 50.5,73 q 0.5,0 0.875,-0.125 0.375,-0.125 0.5,-0.5 Q 52,72 52,71.5 q 0,-0.5 0,-1 0,-0.5 0,-1 0,-0.5 0,-1 0,-0.5 -0.125,-0.875 -0.125,-0.375 -0.5,-0.5 Q 51,67 50.5,67 50,67 49.625,66.875 49.25,66.75 49.125,66.375 49,66 49,65.5 49,65 49.125,64.625 49.25,64.25 49.625,64.125 50,64 50.5,64 q 0.5,0 0.875,-0.125 0.375,-0.125 0.5,-0.5 Q 52,63 52,62.5 52,62 52.125,61.625 52.25,61.25 52.625,61.125 53,61 53.5,61 q 0.5,0 0.875,-0.125 0.375,-0.125 0.5,-0.5 Q 55,60 55,59.5 55,59 55.125,58.625 55.25,58.25 55.625,58.125 56,58 56.5,58 q 0.5,0 0.875,-0.125 0.375,-0.125 0.5,-0.5 Q 58,57 58,56.5 58,56 58.125,55.625 58.25,55.25 58.625,55.125 59,55 59.5,55 q 0.5,0 0.875,-0.125 0.375,-0.125 0.5,-0.5 Q 61,54 61,53.5 61,53 61.125,52.625"
         id="path33916"
         inkscape:connector-curvature="0" />
      <path
         style="fill:#000000;fill-opacity:1"
         d="m 22.125,55.625 q 0.125,-0.375 0.5,-0.5 Q 23,55 23.5,55 q 0.5,0 0.875,0.125 0.375,0.125 0.5,0.5 Q 25,56 25,56.5 q 0,0.5 0,1 0,0.5 0,1 0,0.5 0,1 0,0.5 0.125,0.875 0.125,0.375 0.5,0.5 Q 26,61 26.5,61 q 0.5,0 1,0 0.5,0 1,0 0.5,0 1,0 0.5,0 1,0 0.5,0 1,0 0.5,0 1,0 0.5,0 0.875,0.125 0.375,0.125 0.5,0.5 Q 34,62 34,62.5 q 0,0.5 -0.125,0.875 -0.125,0.375 -0.5,0.5 Q 33,64 32.5,64 q -0.5,0 -1,0 -0.5,0 -1,0 -0.5,0 -1,0 -0.5,0 -1,0 -0.5,0 -1,0 -0.5,0 -1,0 -0.5,0 -0.875,0.125 -0.375,0.125 -0.5,0.5 Q 25,65 25,65.5 q 0,0.5 0.125,0.875 0.125,0.375 0.5,0.5 Q 26,67 26.5,67 q 0.5,0 0.875,0.125 0.375,0.125 0.5,0.5 Q 28,68 28,68.5 q 0,0.5 0.125,0.875 0.125,0.375 0.5,0.5 Q 29,70 29.5,70 q 0.5,0 0.875,0.125 0.375,0.125 0.5,0.5 Q 31,71 31,71.5 q 0,0.5 -0.125,0.875 -0.125,0.375 -0.5,0.5 Q 30,73 29.5,73 q -0.5,0 -1,0 -0.5,0 -1,0 -0.5,0 -1,0 -0.5,0 -1,0 -0.5,0 -1,0 -0.5,0 -1,0 -0.5,0 -0.875,-0.125 -0.375,-0.125 -0.5,-0.5 Q 22,72 22,71.5 22,71 22.125,70.625 22.25,70.25 22.625,70.125 23,70 23.5,70 q 0.5,0 0.875,-0.125 0.375,-0.125 0.5,-0.5 Q 25,69 25,68.5 25,68 24.875,67.625 24.75,67.25 24.375,67.125 24,67 23.5,67 23,67 22.625,66.875 22.25,66.75 22.125,66.375 22,66 22,65.5 22,65 22.125,64.625 22.25,64.25 22.625,64.125 23,64 23.5,64 q 0.5,0 0.875,-0.125 0.375,-0.125 0.5,-0.5 Q 25,63 25,62.5 25,62 24.875,61.625 24.75,61.25 24.375,61.125 24,61 23.5,61 23,61 22.625,60.875 22.25,60.75 22.125,60.375 22,60 22,59.5 q 0,-0.5 0,-1 0,-0.5 0,-1 0,-0.5 0,-1 0,-0.5 0.125,-0.875"
         id="path33918"
         inkscape:connector-curvature="0" />
      <path
         style="fill:#000000;fill-opacity:1"
         d="m 28.125,55.625 q 0.125,-0.375 0.5,-0.5 Q 29,55 29.5,55 q 0.5,0 0.875,0.125 0.375,0.125 0.5,0.5 Q 31,56 31,56.5 q 0,0.5 -0.125,0.875 -0.125,0.375 -0.5,0.5 Q 30,58 29.5,58 29,58 28.625,57.875 28.25,57.75 28.125,57.375 28,57 28,56.5 28,56 28.125,55.625"
         id="path33920"
         inkscape:connector-curvature="0" />
      <path
         style="fill:#ffffff;fill-opacity:1"
         d="m 73.125,55.625 q 0.125,-0.375 0.5,-0.5 Q 74,55 74.5,55 q 0.5,0 0.875,0.125 0.375,0.125 0.5,0.5 Q 76,56 76,56.5 q 0,0.5 -0.125,0.875 -0.125,0.375 -0.5,0.5 Q 75,58 74.5,58 74,58 73.625,57.875 73.25,57.75 73.125,57.375 73,57 73,56.5 73,56 73.125,55.625"
         id="path33922"
         inkscape:connector-curvature="0" />
      <path
         style="fill:#000000;fill-opacity:1"
         d="m 34.125,70.625 q 0.125,-0.375 0.5,-0.5 Q 35,70 35.5,70 q 0.5,0 1,0 0.5,0 1,0 0.5,0 1,0 0.5,0 1,0 0.5,0 1,0 0.5,0 1,0 0.5,0 0.875,0.125 0.375,0.125 0.5,0.5 Q 43,71 43,71.5 q 0,0.5 -0.125,0.875 -0.125,0.375 -0.5,0.5 Q 42,73 41.5,73 q -0.5,0 -1,0 -0.5,0 -1,0 -0.5,0 -1,0 -0.5,0 -1,0 -0.5,0 -1,0 -0.5,0 -1,0 -0.5,0 -0.875,-0.125 -0.375,-0.125 -0.5,-0.5 Q 34,72 34,71.5 34,71 34.125,70.625"
         id="path33924"
         inkscape:connector-curvature="0" />
      <path
         style="fill:#000000;fill-opacity:1"
         d="m 94.125,70.625 q 0.125,-0.375 0.5,-0.5 Q 95,70 95.5,70 q 0.5,0 0.875,0.125 0.375,0.125 0.5,0.5 Q 97,71 97,71.5 q 0,0.5 -0.125,0.875 -0.125,0.375 -0.5,0.5 Q 96,73 95.5,73 95,73 94.625,72.875 94.25,72.75 94.125,72.375 94,72 94,71.5 94,71 94.125,70.625"
         id="path33926"
         inkscape:connector-curvature="0" />
      <path
         style="fill:#ffffff;fill-opacity:1"
         d="m 73.125,73.625 q 0.125,-0.375 0.5,-0.5 Q 74,73 74.5,73 q 0.5,0 1,0 0.5,0 1,0 0.5,0 1,0 0.5,0 1,0 0.5,0 1,0 0.5,0 1,0 0.5,0 0.875,0.125 0.375,0.125 0.5,0.5 Q 82,74 82,74.5 q 0,0.5 0,1 0,0.5 0,1 0,0.5 0,1 0,0.5 0,1 0,0.5 0,1 0,0.5 0,1 0,0.5 -0.125,0.875 -0.125,0.375 -0.5,0.5 Q 81,82 80.5,82 q -0.5,0 -1,0 -0.5,0 -1,0 -0.5,0 -1,0 -0.5,0 -1,0 -0.5,0 -1,0 -0.5,0 -1,0 -0.5,0 -0.875,-0.125 -0.375,-0.125 -0.5,-0.5 Q 73,81 73,80.5 q 0,-0.5 0,-1 0,-0.5 0,-1 0,-0.5 0,-1 0,-0.5 0,-1 0,-0.5 0,-1 0,-0.5 0,-1 0,-0.5 0.125,-0.875 M 77.5,79 q 0.5,0 0.875,-0.125 0.375,-0.125 0.5,-0.5 Q 79,78 79,77.5 79,77 78.875,76.625 78.75,76.25 78.375,76.125 78,76 77.5,76 77,76 76.625,76.125 76.25,76.25 76.125,76.625 76,77 76,77.5 q 0,0.5 0.125,0.875 0.125,0.375 0.5,0.5 Q 77,79 77.5,79"
         id="path33928"
         inkscape:connector-curvature="0" />
      <path
         style="fill:#000000;fill-opacity:1"
         d="m 22.125,76.625 q 0.125,-0.375 0.5,-0.5 Q 23,76 23.5,76 q 0.5,0 1,0 0.5,0 1,0 0.5,0 1,0 0.5,0 1,0 0.5,0 1,0 0.5,0 1,0 0.5,0 1,0 0.5,0 1,0 0.5,0 1,0 0.5,0 1,0 0.5,0 1,0 0.5,0 1,0 0.5,0 1,0 0.5,0 1,0 0.5,0 1,0 0.5,0 1,0 0.5,0 1,0 0.5,0 1,0 0.5,0 0.875,0.125 0.375,0.125 0.5,0.5 Q 43,77 43,77.5 q 0,0.5 0,1 0,0.5 0,1 0,0.5 0,1 0,0.5 0,1 0,0.5 0,1 0,0.5 0,1 0,0.5 0,1 0,0.5 0,1 0,0.5 0,1 0,0.5 0,1 0,0.5 0,1 0,0.5 0,1 0,0.5 0,1 0,0.5 0,1 0,0.5 0,1 0,0.5 0,1 0,0.5 0,1 0,0.5 0,1 0,0.5 -0.125,0.875 -0.125,0.375 -0.5,0.5 Q 42,97 41.5,97 q -0.5,0 -1,0 -0.5,0 -1,0 -0.5,0 -1,0 -0.5,0 -1,0 -0.5,0 -1,0 -0.5,0 -1,0 -0.5,0 -1,0 -0.5,0 -1,0 -0.5,0 -1,0 -0.5,0 -1,0 -0.5,0 -1,0 -0.5,0 -1,0 -0.5,0 -1,0 -0.5,0 -1,0 -0.5,0 -1,0 -0.5,0 -1,0 -0.5,0 -1,0 -0.5,0 -1,0 -0.5,0 -0.875,-0.125 -0.375,-0.125 -0.5,-0.5 Q 22,96 22,95.5 q 0,-0.5 0,-1 0,-0.5 0,-1 0,-0.5 0,-1 0,-0.5 0,-1 0,-0.5 0,-1 0,-0.5 0,-1 0,-0.5 0,-1 0,-0.5 0,-1 0,-0.5 0,-1 0,-0.5 0,-1 0,-0.5 0,-1 0,-0.5 0,-1 0,-0.5 0,-1 0,-0.5 0,-1 0,-0.5 0,-1 0,-0.5 0,-1 0,-0.5 0,-1 0,-0.5 0,-1 0,-0.5 0.125,-0.875 M 38.5,94 q 0.5,0 0.875,-0.125 0.375,-0.125 0.5,-0.5 Q 40,93 40,92.5 q 0,-0.5 0,-1 0,-0.5 0,-1 0,-0.5 0,-1 0,-0.5 0,-1 0,-0.5 0,-1 0,-0.5 0,-1 0,-0.5 0,-1 0,-0.5 0,-1 0,-0.5 0,-1 0,-0.5 0,-1 0,-0.5 0,-1 0,-0.5 0,-1 0,-0.5 -0.125,-0.875 -0.125,-0.375 -0.5,-0.5 Q 39,79 38.5,79 q -0.5,0 -1,0 -0.5,0 -1,0 -0.5,0 -1,0 -0.5,0 -1,0 -0.5,0 -1,0 -0.5,0 -1,0 -0.5,0 -1,0 -0.5,0 -1,0 -0.5,0 -1,0 -0.5,0 -1,0 -0.5,0 -1,0 -0.5,0 -1,0 -0.5,0 -0.875,0.125 -0.375,0.125 -0.5,0.5 Q 25,80 25,80.5 q 0,0.5 0,1 0,0.5 0,1 0,0.5 0,1 0,0.5 0,1 0,0.5 0,1 0,0.5 0,1 0,0.5 0,1 0,0.5 0,1 0,0.5 0,1 0,0.5 0,1 0,0.5 0,1 0,0.5 0,1 0,0.5 0.125,0.875 0.125,0.375 0.5,0.5 Q 26,94 26.5,94 q 0.5,0 1,0 0.5,0 1,0 0.5,0 1,0 0.5,0 1,0 0.5,0 1,0 0.5,0 1,0 0.5,0 1,0 0.5,0 1,0 0.5,0 1,0 0.5,0 1,0 0.5,0 1,0 0.5,0 1,0"
         id="path33930"
         inkscape:connector-curvature="0" />
      <path
         style="fill:#ffffff;fill-opacity:1"
         d="m 64.125,76.625 q 0.125,-0.375 0.5,-0.5 Q 65,76 65.5,76 q 0.5,0 1,0 0.5,0 1,0 0.5,0 1,0 0.5,0 0.875,0.125 0.375,0.125 0.5,0.5 Q 70,77 70,77.5 q 0,0.5 -0.125,0.875 -0.125,0.375 -0.5,0.5 Q 69,79 68.5,79 68,79 67.625,79.125 67.25,79.25 67.125,79.625 67,80 67,80.5 q 0,0.5 0,1 0,0.5 0,1 0,0.5 0,1 0,0.5 -0.125,0.875 -0.125,0.375 -0.5,0.5 Q 66,85 65.5,85 65,85 64.625,84.875 64.25,84.75 64.125,84.375 64,84 64,83.5 64,83 63.875,82.625 63.75,82.25 63.375,82.125 63,82 62.5,82 62,82 61.625,81.875 61.25,81.75 61.125,81.375 61,81 61,80.5 61,80 61.125,79.625 61.25,79.25 61.625,79.125 62,79 62.5,79 q 0.5,0 0.875,-0.125 0.375,-0.125 0.5,-0.5 Q 64,78 64,77.5 64,77 64.125,76.625"
         id="path33932"
         inkscape:connector-curvature="0" />
      <path
         style="fill:#000000;fill-opacity:1"
         d="m 76.125,76.625 q 0.125,-0.375 0.5,-0.5 Q 77,76 77.5,76 q 0.5,0 0.875,0.125 0.375,0.125 0.5,0.5 Q 79,77 79,77.5 q 0,0.5 -0.125,0.875 -0.125,0.375 -0.5,0.5 Q 78,79 77.5,79 77,79 76.625,78.875 76.25,78.75 76.125,78.375 76,78 76,77.5 76,77 76.125,76.625"
         id="path33934"
         inkscape:connector-curvature="0" />
      <path
         style="fill:#ffffff;fill-opacity:1"
         d="m 25.125,79.625 q 0.125,-0.375 0.5,-0.5 Q 26,79 26.5,79 q 0.5,0 1,0 0.5,0 1,0 0.5,0 1,0 0.5,0 1,0 0.5,0 1,0 0.5,0 1,0 0.5,0 1,0 0.5,0 1,0 0.5,0 1,0 0.5,0 1,0 0.5,0 1,0 0.5,0 1,0 0.5,0 0.875,0.125 0.375,0.125 0.5,0.5 Q 40,80 40,80.5 q 0,0.5 0,1 0,0.5 0,1 0,0.5 0,1 0,0.5 0,1 0,0.5 0,1 0,0.5 0,1 0,0.5 0,1 0,0.5 0,1 0,0.5 0,1 0,0.5 0,1 0,0.5 0,1 0,0.5 0,1 0,0.5 -0.125,0.875 -0.125,0.375 -0.5,0.5 Q 39,94 38.5,94 q -0.5,0 -1,0 -0.5,0 -1,0 -0.5,0 -1,0 -0.5,0 -1,0 -0.5,0 -1,0 -0.5,0 -1,0 -0.5,0 -1,0 -0.5,0 -1,0 -0.5,0 -1,0 -0.5,0 -1,0 -0.5,0 -1,0 -0.5,0 -1,0 -0.5,0 -0.875,-0.125 -0.375,-0.125 -0.5,-0.5 Q 25,93 25,92.5 q 0,-0.5 0,-1 0,-0.5 0,-1 0,-0.5 0,-1 0,-0.5 0,-1 0,-0.5 0,-1 0,-0.5 0,-1 0,-0.5 0,-1 0,-0.5 0,-1 0,-0.5 0,-1 0,-0.5 0,-1 0,-0.5 0,-1 0,-0.5 0,-1 0,-0.5 0.125,-0.875 M 35.5,91 q 0.5,0 0.875,-0.125 0.375,-0.125 0.5,-0.5 Q 37,90 37,89.5 q 0,-0.5 0,-1 0,-0.5 0,-1 0,-0.5 0,-1 0,-0.5 0,-1 0,-0.5 0,-1 0,-0.5 0,-1 0,-0.5 -0.125,-0.875 -0.125,-0.375 -0.5,-0.5 Q 36,82 35.5,82 q -0.5,0 -1,0 -0.5,0 -1,0 -0.5,0 -1,0 -0.5,0 -1,0 -0.5,0 -1,0 -0.5,0 -1,0 -0.5,0 -0.875,0.125 -0.375,0.125 -0.5,0.5 Q 28,83 28,83.5 q 0,0.5 0,1 0,0.5 0,1 0,0.5 0,1 0,0.5 0,1 0,0.5 0,1 0,0.5 0,1 0,0.5 0.125,0.875 0.125,0.375 0.5,0.5 Q 29,91 29.5,91 q 0.5,0 1,0 0.5,0 1,0 0.5,0 1,0 0.5,0 1,0 0.5,0 1,0 0.5,0 1,0"
         id="path33936"
         inkscape:connector-curvature="0" />
      <path
         style="fill:#000000;fill-opacity:1"
         d="m 28.125,82.625 q 0.125,-0.375 0.5,-0.5 Q 29,82 29.5,82 q 0.5,0 1,0 0.5,0 1,0 0.5,0 1,0 0.5,0 1,0 0.5,0 1,0 0.5,0 1,0 0.5,0 0.875,0.125 0.375,0.125 0.5,0.5 Q 37,83 37,83.5 q 0,0.5 0,1 0,0.5 0,1 0,0.5 0,1 0,0.5 0,1 0,0.5 0,1 0,0.5 0,1 0,0.5 -0.125,0.875 -0.125,0.375 -0.5,0.5 Q 36,91 35.5,91 q -0.5,0 -1,0 -0.5,0 -1,0 -0.5,0 -1,0 -0.5,0 -1,0 -0.5,0 -1,0 -0.5,0 -1,0 -0.5,0 -0.875,-0.125 -0.375,-0.125 -0.5,-0.5 Q 28,90 28,89.5 q 0,-0.5 0,-1 0,-0.5 0,-1 0,-0.5 0,-1 0,-0.5 0,-1 0,-0.5 0,-1 0,-0.5 0,-1 0,-0.5 0.125,-0.875"
         id="path33938"
         inkscape:connector-curvature="0" />
      <path
         style="fill:#ffffff;fill-opacity:1"
         d="m 61.125,88.625 q 0.125,-0.375 0.5,-0.5 Q 62,88 62.5,88 q 0.5,0 1,0 0.5,0 1,0 0.5,0 1,0 0.5,0 0.875,0.125 0.375,0.125 0.5,0.5 Q 67,89 67,89.5 q 0,0.5 -0.125,0.875 -0.125,0.375 -0.5,0.5 Q 66,91 65.5,91 65,91 64.625,91.125 64.25,91.25 64.125,91.625 64,92 64,92.5 q 0,0.5 -0.125,0.875 -0.125,0.375 -0.5,0.5 Q 63,94 62.5,94 62,94 61.625,93.875 61.25,93.75 61.125,93.375 61,93 61,92.5 q 0,-0.5 0,-1 0,-0.5 0,-1 0,-0.5 0,-1 0,-0.5 0.125,-0.875"
         id="path33940"
         inkscape:connector-curvature="0" />
      <path
         style="fill:#ffffff;fill-opacity:1"
         d="m 70.125,88.625 q 0.125,-0.375 0.5,-0.5 Q 71,88 71.5,88 q 0.5,0 0.875,0.125 0.375,0.125 0.5,0.5 Q 73,89 73,89.5 q 0,0.5 0,1 0,0.5 0,1 0,0.5 0,1 0,0.5 -0.125,0.875 -0.125,0.375 -0.5,0.5 Q 72,94 71.5,94 71,94 70.625,93.875 70.25,93.75 70.125,93.375 70,93 70,92.5 q 0,-0.5 0,-1 0,-0.5 0,-1 0,-0.5 0,-1 0,-0.5 0.125,-0.875"
         id="path33942"
         inkscape:connector-curvature="0" />
      <path
         style="fill:#000000;fill-opacity:1"
         d="m 85.125,88.625 q 0.125,-0.375 0.5,-0.5 Q 86,88 86.5,88 q 0.5,0 1,0 0.5,0 1,0 0.5,0 1,0 0.5,0 0.875,0.125 0.375,0.125 0.5,0.5 Q 91,89 91,89.5 q 0,0.5 -0.125,0.875 -0.125,0.375 -0.5,0.5 Q 90,91 89.5,91 89,91 88.625,91.125 88.25,91.25 88.125,91.625 88,92 88,92.5 q 0,0.5 0,1 0,0.5 0,1 0,0.5 0,1 0,0.5 -0.125,0.875 -0.125,0.375 -0.5,0.5 Q 87,97 86.5,97 q -0.5,0 -1,0 -0.5,0 -1,0 -0.5,0 -1,0 -0.5,0 -0.875,-0.125 -0.375,-0.125 -0.5,-0.5 Q 82,96 82,95.5 82,95 82.125,94.625 82.25,94.25 82.625,94.125 83,94 83.5,94 q 0.5,0 0.875,-0.125 0.375,-0.125 0.5,-0.5 Q 85,93 85,92.5 q 0,-0.5 0,-1 0,-0.5 0,-1 0,-0.5 0,-1 0,-0.5 0.125,-0.875"
         id="path33944"
         inkscape:connector-curvature="0" />
      <path
         style="fill:#000000;fill-opacity:1"
         d="m 94.125,88.625 q 0.125,-0.375 0.5,-0.5 Q 95,88 95.5,88 q 0.5,0 0.875,0.125 0.375,0.125 0.5,0.5 Q 97,89 97,89.5 q 0,0.5 0,1 0,0.5 0,1 0,0.5 0,1 0,0.5 0,1 0,0.5 0,1 0,0.5 0,1 0,0.5 -0.125,0.875 -0.125,0.375 -0.5,0.5 Q 96,97 95.5,97 q -0.5,0 -1,0 -0.5,0 -1,0 -0.5,0 -1,0 -0.5,0 -0.875,-0.125 -0.375,-0.125 -0.5,-0.5 Q 91,96 91,95.5 q 0,-0.5 0,-1 0,-0.5 0,-1 0,-0.5 0,-1 0,-0.5 0.125,-0.875 0.125,-0.375 0.5,-0.5 Q 92,91 92.5,91 q 0.5,0 0.875,-0.125 0.375,-0.125 0.5,-0.5 Q 94,90 94,89.5 94,89 94.125,88.625"
         id="path33946"
         inkscape:connector-curvature="0" />
    </g>
    <flowRoot
       xml:space="preserve"
       id="flowRoot28"
       style="font-style:normal;font-weight:normal;font-size:40px;line-height:1.25;font-family:sans-serif;letter-spacing:0px;word-spacing:0px;fill:#000000;fill-opacity:1;stroke:none"
       transform="matrix(0.26458333,0,0,0.26458333,0,263.13332)"><flowRegion
         id="flowRegion30"><rect
           id="rect32"
           width="108.5"
           height="59"
           x="6.5"
           y="62" /></flowRegion><flowPara
         id="flowPara34" /></flowRoot>    <rect
       style="display:inline;fill:#ffffff;stroke-width:0.39626768"
       id="rect5064"
       width="12"
       height="5"
       x="-183.14197"
       y="207.51071"
       ry="2.5"
       transform="rotate(-45)" />
  </g>
  <g
     inkscape:groupmode="layer"
     id="layer2"
     inkscape:label="Arrow"
     style="display:inline"
     sodipodi:insensitive="true">
    <text
       xml:space="preserve"
       style="font-style:normal;font-variant:normal;font-weight:normal;font-stretch:normal;font-size:19.57312012px;line-height:1.25;font-family:sans-serif;-inkscape-font-specification:'sans-serif, Normal';font-variant-ligatures:normal;font-variant-caps:normal;font-variant-numeric:normal;font-feature-settings:normal;text-align:start;letter-spacing:0px;word-spacing:0px;writing-mode:lr-tb;text-anchor:start;fill:#2a7fff;fill-opacity:1;stroke:none;stroke-width:0.66726547"
       x="2.3516114"
       y="30.98465"
       id="text3926"
       transform="matrix(0.70711506,-0.7070985,0.70711506,0.7070985,0,0)"><tspan
         sodipodi:role="line"
         id="tspan3924"
         x="2.3516114"
         y="30.98465"
         style="font-style:normal;font-variant:normal;font-weight:normal;font-stretch:normal;font-size:19.57312012px;font-family:sans-serif;-inkscape-font-specification:'sans-serif, Normal';font-variant-ligatures:normal;font-variant-caps:normal;font-variant-numeric:normal;font-feature-settings:normal;text-align:start;writing-mode:lr-tb;text-anchor:start;fill:#2a7fff;stroke-width:0.66726547"></tspan></text>
  </g>
</svg>
